<svg width="3434" height="315" xmlns="http://www.w3.org/2000/svg"><g fill="none" fill-rule="evenodd"><path d="M256 123.5V187h-64V60h64v63.5zm-64 0V187h-64V60h64v63.5zM0 119h64v64H0v-64zm64 68h64v64H64v-64zm64 0h64v64h-64v-64zm-64-64h64v64H64v-64zm64 128h64v64h-64v-64zm64-64h64v64h-64v-64zM64 59h64v64H64V59zm192 64h64v64h-64v-64zM128 0h64v64h-64V0z" fill="#00E436" fill-rule="nonzero"/><path d="M36 156h64v64H36v-64zm64 64h64v64h-64v-64zm64-128h64v64h-64V92zm0-64h64v64h-64V28zm-64 128h64v64h-64v-64zm64 0h64v64h-64v-64zM36 28h64v64H36V28zm0 64h64v64H36V92z" fill="#ECF0EE" fill-rule="nonzero"/><path d="M534 278v-50h-50V78h50v100h50V78h50v150h-50v50h-50zm150 0v-50h50V128h-50V78h150v50h-50v100h50v50H684zm200 0V78h150v200h-50V178h-50v100h-50zm200-100v-50h150v50h-150zm300 0v-50h-50v50h50zm-100 100V78h150v150h-100v50h-50zm200 0v-50h50V128h-50V78h150v50h-50v100h50v50h-150zm200 0V78h150v50h-100v100h100v50h-150zm200 0V128h50v100h50v50h-100zm100-50V128h-50V78h100v150h-50zm200 0v-50h-50v50h50zm0-100V78h-50v50h50zm-100 150V28h150v250h-150zm200-100v-50h150v50h-150zm200 100V78h150v50h-100v100h100v50h-150zm200 0V128h50v100h50v50h-100zm100-50V128h-50V78h100v150h-50zm100 50V78h50v150h100v50h-150zm200 0V128h50v100h50v50h-100zm100-50V128h-50V78h100v150h-50zm200 50v-50h50v50h-50zm-100 0V78h150v100h-50v-50h-50v50h50v50h-50v50h-50z" fill="#000"/></g></svg>